<mxfile host="app.diagrams.net" agent="Mozilla/5.0 (Windows NT 10.0; Win64; x64) AppleWebKit/537.36 (KHTML, like Gecko) Chrome/135.0.0.0 Safari/537.36 Edg/135.0.0.0" version="26.2.13" pages="2">
  <diagram name="Page-1" id="7poHv31PEjr8naybO93O">
    <mxGraphModel dx="1036" dy="536" grid="0" gridSize="10" guides="1" tooltips="1" connect="1" arrows="1" fold="1" page="1" pageScale="1" pageWidth="827" pageHeight="1169" background="none" math="0" shadow="0">
      <root>
        <mxCell id="0" />
        <mxCell id="1" parent="0" />
        <mxCell id="ulHE746a1Lr0ZhgHCjJH-11" value="" style="rounded=0;whiteSpace=wrap;html=1;rotation=0;strokeColor=default;strokeWidth=2;" parent="1" vertex="1">
          <mxGeometry x="24" y="48" width="726" height="443" as="geometry" />
        </mxCell>
        <mxCell id="ml06GpzywyC4hJk5AF-Q-6" style="edgeStyle=orthogonalEdgeStyle;rounded=0;orthogonalLoop=1;jettySize=auto;html=1;exitX=1;exitY=0.5;exitDx=0;exitDy=0;entryX=0;entryY=0.5;entryDx=0;entryDy=0;" parent="1" source="ml06GpzywyC4hJk5AF-Q-2" target="ml06GpzywyC4hJk5AF-Q-4" edge="1">
          <mxGeometry relative="1" as="geometry" />
        </mxCell>
        <mxCell id="fQpwmtalvufMb12PAkrU-5" style="edgeStyle=orthogonalEdgeStyle;rounded=0;orthogonalLoop=1;jettySize=auto;html=1;exitX=0.5;exitY=1;exitDx=0;exitDy=0;entryX=0;entryY=0.5;entryDx=0;entryDy=0;" parent="1" source="ml06GpzywyC4hJk5AF-Q-2" target="fQpwmtalvufMb12PAkrU-4" edge="1">
          <mxGeometry relative="1" as="geometry" />
        </mxCell>
        <mxCell id="ml06GpzywyC4hJk5AF-Q-2" value="&lt;div&gt;Người dùng&lt;/div&gt;" style="rounded=0;whiteSpace=wrap;html=1;" parent="1" vertex="1">
          <mxGeometry x="41" y="180" width="97" height="46" as="geometry" />
        </mxCell>
        <mxCell id="ml06GpzywyC4hJk5AF-Q-8" style="edgeStyle=orthogonalEdgeStyle;rounded=0;orthogonalLoop=1;jettySize=auto;html=1;exitX=1;exitY=0.5;exitDx=0;exitDy=0;entryX=0;entryY=0.5;entryDx=0;entryDy=0;" parent="1" source="ml06GpzywyC4hJk5AF-Q-4" target="ml06GpzywyC4hJk5AF-Q-7" edge="1">
          <mxGeometry relative="1" as="geometry" />
        </mxCell>
        <mxCell id="ml06GpzywyC4hJk5AF-Q-4" value="&lt;div&gt;Nút bấm&lt;/div&gt;" style="rounded=0;whiteSpace=wrap;html=1;" parent="1" vertex="1">
          <mxGeometry x="211" y="180" width="97" height="46" as="geometry" />
        </mxCell>
        <mxCell id="ml06GpzywyC4hJk5AF-Q-23" style="edgeStyle=orthogonalEdgeStyle;rounded=0;orthogonalLoop=1;jettySize=auto;html=1;exitX=1;exitY=0.5;exitDx=0;exitDy=0;entryX=0;entryY=0.5;entryDx=0;entryDy=0;" parent="1" source="ml06GpzywyC4hJk5AF-Q-7" target="fQpwmtalvufMb12PAkrU-1" edge="1">
          <mxGeometry relative="1" as="geometry">
            <mxPoint x="567" y="90" as="targetPoint" />
          </mxGeometry>
        </mxCell>
        <mxCell id="ml06GpzywyC4hJk5AF-Q-24" style="edgeStyle=orthogonalEdgeStyle;rounded=0;orthogonalLoop=1;jettySize=auto;html=1;exitX=1;exitY=0.5;exitDx=0;exitDy=0;entryX=0;entryY=0.5;entryDx=0;entryDy=0;" parent="1" source="ml06GpzywyC4hJk5AF-Q-7" target="ml06GpzywyC4hJk5AF-Q-10" edge="1">
          <mxGeometry relative="1" as="geometry" />
        </mxCell>
        <mxCell id="ml06GpzywyC4hJk5AF-Q-25" style="edgeStyle=orthogonalEdgeStyle;rounded=0;orthogonalLoop=1;jettySize=auto;html=1;exitX=1;exitY=0.5;exitDx=0;exitDy=0;entryX=0;entryY=0.5;entryDx=0;entryDy=0;" parent="1" source="ml06GpzywyC4hJk5AF-Q-7" target="ml06GpzywyC4hJk5AF-Q-11" edge="1">
          <mxGeometry relative="1" as="geometry" />
        </mxCell>
        <mxCell id="ml06GpzywyC4hJk5AF-Q-26" style="edgeStyle=orthogonalEdgeStyle;rounded=0;orthogonalLoop=1;jettySize=auto;html=1;exitX=1;exitY=0.5;exitDx=0;exitDy=0;entryX=0;entryY=0.5;entryDx=0;entryDy=0;" parent="1" source="ml06GpzywyC4hJk5AF-Q-7" target="ml06GpzywyC4hJk5AF-Q-12" edge="1">
          <mxGeometry relative="1" as="geometry" />
        </mxCell>
        <mxCell id="ml06GpzywyC4hJk5AF-Q-7" value="&lt;div&gt;Vi điều khiển&lt;/div&gt;" style="rounded=0;whiteSpace=wrap;html=1;" parent="1" vertex="1">
          <mxGeometry x="380" y="180" width="97" height="46" as="geometry" />
        </mxCell>
        <mxCell id="ml06GpzywyC4hJk5AF-Q-10" value="&lt;div&gt;Còi&lt;/div&gt;" style="rounded=0;whiteSpace=wrap;html=1;" parent="1" vertex="1">
          <mxGeometry x="627" y="181" width="97" height="46" as="geometry" />
        </mxCell>
        <mxCell id="ml06GpzywyC4hJk5AF-Q-11" value="&lt;div&gt;Màn hình LCD&lt;/div&gt;" style="rounded=0;whiteSpace=wrap;html=1;" parent="1" vertex="1">
          <mxGeometry x="627" y="283" width="97" height="46" as="geometry" />
        </mxCell>
        <mxCell id="ml06GpzywyC4hJk5AF-Q-12" value="&lt;div&gt;Servo motor&lt;/div&gt;" style="rounded=0;whiteSpace=wrap;html=1;" parent="1" vertex="1">
          <mxGeometry x="627" y="395" width="97" height="46" as="geometry" />
        </mxCell>
        <mxCell id="ulHE746a1Lr0ZhgHCjJH-3" style="edgeStyle=orthogonalEdgeStyle;rounded=0;orthogonalLoop=1;jettySize=auto;html=1;exitX=0.5;exitY=1;exitDx=0;exitDy=0;" parent="1" source="ml06GpzywyC4hJk5AF-Q-17" edge="1">
          <mxGeometry relative="1" as="geometry">
            <mxPoint x="429" y="180" as="targetPoint" />
          </mxGeometry>
        </mxCell>
        <mxCell id="ml06GpzywyC4hJk5AF-Q-17" value="Cảm biến ánh sáng LDR" style="rounded=0;whiteSpace=wrap;html=1;" parent="1" vertex="1">
          <mxGeometry x="41" y="64" width="97" height="46" as="geometry" />
        </mxCell>
        <mxCell id="ulHE746a1Lr0ZhgHCjJH-2" style="edgeStyle=orthogonalEdgeStyle;rounded=0;orthogonalLoop=1;jettySize=auto;html=1;exitX=0.5;exitY=1;exitDx=0;exitDy=0;" parent="1" source="ml06GpzywyC4hJk5AF-Q-18" edge="1">
          <mxGeometry relative="1" as="geometry">
            <mxPoint x="428.20001220703125" y="180.80001831054688" as="targetPoint" />
          </mxGeometry>
        </mxCell>
        <mxCell id="ml06GpzywyC4hJk5AF-Q-18" value="Cảm biến chuyển động PIR" style="rounded=0;whiteSpace=wrap;html=1;" parent="1" vertex="1">
          <mxGeometry x="166" y="64" width="97" height="46" as="geometry" />
        </mxCell>
        <mxCell id="ulHE746a1Lr0ZhgHCjJH-1" style="edgeStyle=orthogonalEdgeStyle;rounded=0;orthogonalLoop=1;jettySize=auto;html=1;entryX=0.5;entryY=0;entryDx=0;entryDy=0;exitX=0.5;exitY=1;exitDx=0;exitDy=0;" parent="1" source="ml06GpzywyC4hJk5AF-Q-21" target="ml06GpzywyC4hJk5AF-Q-7" edge="1">
          <mxGeometry relative="1" as="geometry">
            <Array as="points">
              <mxPoint x="350" y="146" />
              <mxPoint x="429" y="146" />
            </Array>
            <mxPoint x="347" y="133" as="sourcePoint" />
          </mxGeometry>
        </mxCell>
        <mxCell id="ml06GpzywyC4hJk5AF-Q-21" value="Cảm biến nhiệt độ, độ ẩm DHT11" style="rounded=0;whiteSpace=wrap;html=1;" parent="1" vertex="1">
          <mxGeometry x="301" y="62" width="97" height="46" as="geometry" />
        </mxCell>
        <mxCell id="ulHE746a1Lr0ZhgHCjJH-5" style="edgeStyle=orthogonalEdgeStyle;rounded=0;orthogonalLoop=1;jettySize=auto;html=1;exitX=1;exitY=0.5;exitDx=0;exitDy=0;entryX=0.5;entryY=1;entryDx=0;entryDy=0;" parent="1" source="ulHE746a1Lr0ZhgHCjJH-4" target="ml06GpzywyC4hJk5AF-Q-12" edge="1">
          <mxGeometry relative="1" as="geometry">
            <Array as="points">
              <mxPoint x="477" y="363" />
              <mxPoint x="503" y="363" />
              <mxPoint x="503" y="480" />
              <mxPoint x="676" y="480" />
            </Array>
            <mxPoint x="647" y="483" as="targetPoint" />
          </mxGeometry>
        </mxCell>
        <mxCell id="ulHE746a1Lr0ZhgHCjJH-4" value="Nguồn 6V" style="rounded=0;whiteSpace=wrap;html=1;" parent="1" vertex="1">
          <mxGeometry x="380" y="345" width="97" height="46" as="geometry" />
        </mxCell>
        <mxCell id="fQpwmtalvufMb12PAkrU-3" style="edgeStyle=orthogonalEdgeStyle;rounded=0;orthogonalLoop=1;jettySize=auto;html=1;exitX=0.5;exitY=0;exitDx=0;exitDy=0;" parent="1" target="ml06GpzywyC4hJk5AF-Q-7" edge="1">
          <mxGeometry relative="1" as="geometry">
            <mxPoint x="428.5" y="273" as="sourcePoint" />
          </mxGeometry>
        </mxCell>
        <mxCell id="fQpwmtalvufMb12PAkrU-1" value="Đèn" style="rounded=0;whiteSpace=wrap;html=1;" parent="1" vertex="1">
          <mxGeometry x="627" y="64" width="97" height="46" as="geometry" />
        </mxCell>
        <mxCell id="fQpwmtalvufMb12PAkrU-6" style="edgeStyle=orthogonalEdgeStyle;rounded=0;orthogonalLoop=1;jettySize=auto;html=1;exitX=1;exitY=0.5;exitDx=0;exitDy=0;entryX=0;entryY=0.75;entryDx=0;entryDy=0;" parent="1" source="fQpwmtalvufMb12PAkrU-4" target="ml06GpzywyC4hJk5AF-Q-7" edge="1">
          <mxGeometry relative="1" as="geometry" />
        </mxCell>
        <mxCell id="fQpwmtalvufMb12PAkrU-4" value="&lt;div&gt;Bàn phím số&lt;/div&gt;" style="rounded=0;whiteSpace=wrap;html=1;" parent="1" vertex="1">
          <mxGeometry x="211" y="270" width="97" height="46" as="geometry" />
        </mxCell>
        <mxCell id="BcO-rdO3fiPcfxqi_Inj-1" value="Nguồn 9V" style="rounded=0;whiteSpace=wrap;html=1;" vertex="1" parent="1">
          <mxGeometry x="380" y="270" width="97" height="46" as="geometry" />
        </mxCell>
        <mxCell id="BcO-rdO3fiPcfxqi_Inj-3" style="edgeStyle=orthogonalEdgeStyle;rounded=0;orthogonalLoop=1;jettySize=auto;html=1;exitX=0.5;exitY=1;exitDx=0;exitDy=0;entryX=0.5;entryY=0;entryDx=0;entryDy=0;" edge="1" parent="1" source="BcO-rdO3fiPcfxqi_Inj-2" target="ml06GpzywyC4hJk5AF-Q-7">
          <mxGeometry relative="1" as="geometry">
            <Array as="points">
              <mxPoint x="476" y="146" />
              <mxPoint x="429" y="146" />
            </Array>
          </mxGeometry>
        </mxCell>
        <mxCell id="BcO-rdO3fiPcfxqi_Inj-2" value="Module thời gian thực RTC DS3231" style="rounded=0;whiteSpace=wrap;html=1;" vertex="1" parent="1">
          <mxGeometry x="427" y="62" width="97" height="46" as="geometry" />
        </mxCell>
      </root>
    </mxGraphModel>
  </diagram>
  <diagram id="GwtXWpNeB6RInts0yojU" name="Page-2">
    <mxGraphModel dx="1042" dy="533" grid="1" gridSize="10" guides="1" tooltips="1" connect="1" arrows="1" fold="1" page="1" pageScale="1" pageWidth="827" pageHeight="1169" math="0" shadow="0">
      <root>
        <mxCell id="0" />
        <mxCell id="1" parent="0" />
        <mxCell id="87EaGYxLtG6GQQDCgHVv-32" style="edgeStyle=orthogonalEdgeStyle;rounded=0;orthogonalLoop=1;jettySize=auto;html=1;exitX=1;exitY=0.25;exitDx=0;exitDy=0;entryX=0;entryY=0.25;entryDx=0;entryDy=0;" parent="1" source="87EaGYxLtG6GQQDCgHVv-1" target="87EaGYxLtG6GQQDCgHVv-24" edge="1">
          <mxGeometry relative="1" as="geometry" />
        </mxCell>
        <mxCell id="87EaGYxLtG6GQQDCgHVv-33" value="4" style="edgeLabel;html=1;align=center;verticalAlign=middle;resizable=0;points=[];" parent="87EaGYxLtG6GQQDCgHVv-32" vertex="1" connectable="0">
          <mxGeometry x="-0.3088" y="-2" relative="1" as="geometry">
            <mxPoint as="offset" />
          </mxGeometry>
        </mxCell>
        <mxCell id="87EaGYxLtG6GQQDCgHVv-36" style="edgeStyle=orthogonalEdgeStyle;rounded=0;orthogonalLoop=1;jettySize=auto;html=1;exitX=1;exitY=0.75;exitDx=0;exitDy=0;entryX=0.25;entryY=0;entryDx=0;entryDy=0;" parent="1" source="87EaGYxLtG6GQQDCgHVv-1" target="87EaGYxLtG6GQQDCgHVv-25" edge="1">
          <mxGeometry relative="1" as="geometry">
            <Array as="points">
              <mxPoint x="510" y="135" />
              <mxPoint x="510" y="150" />
              <mxPoint x="695" y="150" />
            </Array>
          </mxGeometry>
        </mxCell>
        <mxCell id="87EaGYxLtG6GQQDCgHVv-38" value="3" style="edgeLabel;html=1;align=center;verticalAlign=middle;resizable=0;points=[];" parent="87EaGYxLtG6GQQDCgHVv-36" vertex="1" connectable="0">
          <mxGeometry x="-0.054" y="2" relative="1" as="geometry">
            <mxPoint as="offset" />
          </mxGeometry>
        </mxCell>
        <mxCell id="87EaGYxLtG6GQQDCgHVv-40" style="edgeStyle=orthogonalEdgeStyle;rounded=0;orthogonalLoop=1;jettySize=auto;html=1;exitX=0;exitY=0.5;exitDx=0;exitDy=0;entryX=1;entryY=0.5;entryDx=0;entryDy=0;" parent="1" source="87EaGYxLtG6GQQDCgHVv-1" target="87EaGYxLtG6GQQDCgHVv-19" edge="1">
          <mxGeometry relative="1" as="geometry" />
        </mxCell>
        <mxCell id="87EaGYxLtG6GQQDCgHVv-41" value="3, 4" style="edgeLabel;html=1;align=center;verticalAlign=middle;resizable=0;points=[];" parent="87EaGYxLtG6GQQDCgHVv-40" vertex="1" connectable="0">
          <mxGeometry x="0.19" y="3" relative="1" as="geometry">
            <mxPoint y="-3" as="offset" />
          </mxGeometry>
        </mxCell>
        <mxCell id="yZXfQdU-AH0fw_9IXDf0-19" style="edgeStyle=orthogonalEdgeStyle;rounded=0;orthogonalLoop=1;jettySize=auto;html=1;exitX=0.75;exitY=1;exitDx=0;exitDy=0;entryX=0.25;entryY=0;entryDx=0;entryDy=0;" parent="1" source="87EaGYxLtG6GQQDCgHVv-1" target="yZXfQdU-AH0fw_9IXDf0-10" edge="1">
          <mxGeometry relative="1" as="geometry">
            <Array as="points">
              <mxPoint x="460" y="180" />
              <mxPoint x="500" y="180" />
              <mxPoint x="500" y="290" />
              <mxPoint x="660" y="290" />
              <mxPoint x="660" y="340" />
              <mxPoint x="695" y="340" />
            </Array>
          </mxGeometry>
        </mxCell>
        <mxCell id="yZXfQdU-AH0fw_9IXDf0-20" value="9" style="edgeLabel;html=1;align=center;verticalAlign=middle;resizable=0;points=[];" parent="yZXfQdU-AH0fw_9IXDf0-19" vertex="1" connectable="0">
          <mxGeometry x="0.3969" y="-2" relative="1" as="geometry">
            <mxPoint as="offset" />
          </mxGeometry>
        </mxCell>
        <mxCell id="yZXfQdU-AH0fw_9IXDf0-41" style="edgeStyle=orthogonalEdgeStyle;rounded=0;orthogonalLoop=1;jettySize=auto;html=1;exitX=0.5;exitY=0;exitDx=0;exitDy=0;entryX=0;entryY=0.25;entryDx=0;entryDy=0;" parent="1" source="87EaGYxLtG6GQQDCgHVv-1" target="87EaGYxLtG6GQQDCgHVv-22" edge="1">
          <mxGeometry relative="1" as="geometry">
            <Array as="points">
              <mxPoint x="430" y="40" />
              <mxPoint x="40" y="40" />
              <mxPoint x="40" y="415" />
            </Array>
          </mxGeometry>
        </mxCell>
        <mxCell id="yZXfQdU-AH0fw_9IXDf0-42" value="4" style="edgeLabel;html=1;align=center;verticalAlign=middle;resizable=0;points=[];" parent="yZXfQdU-AH0fw_9IXDf0-41" vertex="1" connectable="0">
          <mxGeometry x="-0.4608" y="2" relative="1" as="geometry">
            <mxPoint as="offset" />
          </mxGeometry>
        </mxCell>
        <mxCell id="87EaGYxLtG6GQQDCgHVv-1" value="Quản lý hệ thống" style="rounded=1;whiteSpace=wrap;html=1;" parent="1" vertex="1">
          <mxGeometry x="370" y="90" width="120" height="60" as="geometry" />
        </mxCell>
        <mxCell id="yZXfQdU-AH0fw_9IXDf0-3" style="edgeStyle=orthogonalEdgeStyle;rounded=0;orthogonalLoop=1;jettySize=auto;html=1;exitX=1;exitY=0.25;exitDx=0;exitDy=0;entryX=0.25;entryY=0;entryDx=0;entryDy=0;" parent="1" source="87EaGYxLtG6GQQDCgHVv-14" target="87EaGYxLtG6GQQDCgHVv-42" edge="1">
          <mxGeometry relative="1" as="geometry">
            <Array as="points">
              <mxPoint x="640" y="215" />
              <mxPoint x="640" y="260" />
              <mxPoint x="695" y="260" />
            </Array>
          </mxGeometry>
        </mxCell>
        <mxCell id="yZXfQdU-AH0fw_9IXDf0-4" value="5,6,7" style="edgeLabel;html=1;align=center;verticalAlign=middle;resizable=0;points=[];" parent="yZXfQdU-AH0fw_9IXDf0-3" vertex="1" connectable="0">
          <mxGeometry x="-0.48" y="-1" relative="1" as="geometry">
            <mxPoint as="offset" />
          </mxGeometry>
        </mxCell>
        <mxCell id="87EaGYxLtG6GQQDCgHVv-14" value="Quản lý danh mục" style="rounded=1;whiteSpace=wrap;html=1;" parent="1" vertex="1">
          <mxGeometry x="370" y="200" width="120" height="60" as="geometry" />
        </mxCell>
        <mxCell id="yZXfQdU-AH0fw_9IXDf0-12" style="edgeStyle=orthogonalEdgeStyle;rounded=0;orthogonalLoop=1;jettySize=auto;html=1;exitX=1;exitY=0.5;exitDx=0;exitDy=0;entryX=0.25;entryY=0;entryDx=0;entryDy=0;" parent="1" source="87EaGYxLtG6GQQDCgHVv-15" target="yZXfQdU-AH0fw_9IXDf0-11" edge="1">
          <mxGeometry relative="1" as="geometry">
            <Array as="points">
              <mxPoint x="650" y="330" />
              <mxPoint x="650" y="400" />
              <mxPoint x="695" y="400" />
            </Array>
          </mxGeometry>
        </mxCell>
        <mxCell id="yZXfQdU-AH0fw_9IXDf0-13" value="8" style="edgeLabel;html=1;align=center;verticalAlign=middle;resizable=0;points=[];" parent="yZXfQdU-AH0fw_9IXDf0-12" vertex="1" connectable="0">
          <mxGeometry x="-0.339" y="2" relative="1" as="geometry">
            <mxPoint as="offset" />
          </mxGeometry>
        </mxCell>
        <mxCell id="yZXfQdU-AH0fw_9IXDf0-28" style="edgeStyle=orthogonalEdgeStyle;rounded=0;orthogonalLoop=1;jettySize=auto;html=1;exitX=0.75;exitY=1;exitDx=0;exitDy=0;entryX=0;entryY=0.25;entryDx=0;entryDy=0;" parent="1" source="87EaGYxLtG6GQQDCgHVv-15" target="yZXfQdU-AH0fw_9IXDf0-24" edge="1">
          <mxGeometry relative="1" as="geometry">
            <Array as="points">
              <mxPoint x="590" y="360" />
              <mxPoint x="590" y="508" />
            </Array>
          </mxGeometry>
        </mxCell>
        <mxCell id="yZXfQdU-AH0fw_9IXDf0-29" value="11" style="edgeLabel;html=1;align=center;verticalAlign=middle;resizable=0;points=[];" parent="yZXfQdU-AH0fw_9IXDf0-28" vertex="1" connectable="0">
          <mxGeometry x="0.0003" relative="1" as="geometry">
            <mxPoint as="offset" />
          </mxGeometry>
        </mxCell>
        <mxCell id="yZXfQdU-AH0fw_9IXDf0-32" style="edgeStyle=orthogonalEdgeStyle;rounded=0;orthogonalLoop=1;jettySize=auto;html=1;exitX=0;exitY=0.5;exitDx=0;exitDy=0;entryX=1;entryY=0.75;entryDx=0;entryDy=0;" parent="1" source="87EaGYxLtG6GQQDCgHVv-15" target="87EaGYxLtG6GQQDCgHVv-21" edge="1">
          <mxGeometry relative="1" as="geometry" />
        </mxCell>
        <mxCell id="yZXfQdU-AH0fw_9IXDf0-33" value="11" style="edgeLabel;html=1;align=center;verticalAlign=middle;resizable=0;points=[];" parent="yZXfQdU-AH0fw_9IXDf0-32" vertex="1" connectable="0">
          <mxGeometry x="0.5782" relative="1" as="geometry">
            <mxPoint as="offset" />
          </mxGeometry>
        </mxCell>
        <mxCell id="yZXfQdU-AH0fw_9IXDf0-37" style="edgeStyle=orthogonalEdgeStyle;rounded=0;orthogonalLoop=1;jettySize=auto;html=1;exitX=0;exitY=0;exitDx=0;exitDy=0;entryX=1;entryY=0.75;entryDx=0;entryDy=0;" parent="1" source="87EaGYxLtG6GQQDCgHVv-15" target="87EaGYxLtG6GQQDCgHVv-20" edge="1">
          <mxGeometry relative="1" as="geometry">
            <Array as="points">
              <mxPoint x="320" y="300" />
              <mxPoint x="320" y="235" />
            </Array>
          </mxGeometry>
        </mxCell>
        <mxCell id="yZXfQdU-AH0fw_9IXDf0-38" value="11" style="edgeLabel;html=1;align=center;verticalAlign=middle;resizable=0;points=[];" parent="yZXfQdU-AH0fw_9IXDf0-37" vertex="1" connectable="0">
          <mxGeometry x="0.2907" y="-3" relative="1" as="geometry">
            <mxPoint as="offset" />
          </mxGeometry>
        </mxCell>
        <mxCell id="5NaF9u9C-5IX2Yy5yvwq-1" style="edgeStyle=orthogonalEdgeStyle;rounded=0;orthogonalLoop=1;jettySize=auto;html=1;exitX=0.5;exitY=1;exitDx=0;exitDy=0;entryX=0;entryY=0.5;entryDx=0;entryDy=0;" edge="1" parent="1" source="87EaGYxLtG6GQQDCgHVv-15" target="yZXfQdU-AH0fw_9IXDf0-11">
          <mxGeometry relative="1" as="geometry">
            <Array as="points">
              <mxPoint x="430" y="390" />
              <mxPoint x="520" y="390" />
              <mxPoint x="520" y="450" />
              <mxPoint x="620" y="450" />
              <mxPoint x="620" y="445" />
            </Array>
          </mxGeometry>
        </mxCell>
        <mxCell id="5NaF9u9C-5IX2Yy5yvwq-2" value="10" style="edgeLabel;html=1;align=center;verticalAlign=middle;resizable=0;points=[];" vertex="1" connectable="0" parent="5NaF9u9C-5IX2Yy5yvwq-1">
          <mxGeometry x="0.8018" y="1" relative="1" as="geometry">
            <mxPoint as="offset" />
          </mxGeometry>
        </mxCell>
        <mxCell id="87EaGYxLtG6GQQDCgHVv-15" value="Quản lý đồ án" style="rounded=1;whiteSpace=wrap;html=1;" parent="1" vertex="1">
          <mxGeometry x="370" y="300" width="120" height="60" as="geometry" />
        </mxCell>
        <mxCell id="yZXfQdU-AH0fw_9IXDf0-47" style="edgeStyle=orthogonalEdgeStyle;rounded=0;orthogonalLoop=1;jettySize=auto;html=1;exitX=0;exitY=0.25;exitDx=0;exitDy=0;entryX=0.75;entryY=1;entryDx=0;entryDy=0;" parent="1" source="87EaGYxLtG6GQQDCgHVv-16" target="87EaGYxLtG6GQQDCgHVv-20" edge="1">
          <mxGeometry relative="1" as="geometry">
            <Array as="points">
              <mxPoint x="370" y="440" />
              <mxPoint x="260" y="440" />
              <mxPoint x="260" y="270" />
              <mxPoint x="180" y="270" />
            </Array>
          </mxGeometry>
        </mxCell>
        <mxCell id="yZXfQdU-AH0fw_9IXDf0-48" value="12" style="edgeLabel;html=1;align=center;verticalAlign=middle;resizable=0;points=[];" parent="yZXfQdU-AH0fw_9IXDf0-47" vertex="1" connectable="0">
          <mxGeometry x="0.4727" y="1" relative="1" as="geometry">
            <mxPoint x="1" y="6" as="offset" />
          </mxGeometry>
        </mxCell>
        <mxCell id="87EaGYxLtG6GQQDCgHVv-16" value="Quản lý báo cáo thống kê" style="rounded=1;whiteSpace=wrap;html=1;" parent="1" vertex="1">
          <mxGeometry x="370" y="410" width="120" height="60" as="geometry" />
        </mxCell>
        <mxCell id="87EaGYxLtG6GQQDCgHVv-26" style="edgeStyle=orthogonalEdgeStyle;rounded=0;orthogonalLoop=1;jettySize=auto;html=1;exitX=1;exitY=0.25;exitDx=0;exitDy=0;entryX=0;entryY=0.25;entryDx=0;entryDy=0;" parent="1" source="87EaGYxLtG6GQQDCgHVv-19" target="87EaGYxLtG6GQQDCgHVv-1" edge="1">
          <mxGeometry relative="1" as="geometry">
            <Array as="points">
              <mxPoint x="300" y="105" />
              <mxPoint x="300" y="105" />
            </Array>
          </mxGeometry>
        </mxCell>
        <mxCell id="87EaGYxLtG6GQQDCgHVv-27" value="1, 2" style="edgeLabel;html=1;align=center;verticalAlign=middle;resizable=0;points=[];" parent="87EaGYxLtG6GQQDCgHVv-26" vertex="1" connectable="0">
          <mxGeometry x="-0.19" y="-1" relative="1" as="geometry">
            <mxPoint as="offset" />
          </mxGeometry>
        </mxCell>
        <mxCell id="87EaGYxLtG6GQQDCgHVv-19" value="Quản trị viên" style="rounded=0;whiteSpace=wrap;html=1;" parent="1" vertex="1">
          <mxGeometry x="90" y="90" width="120" height="60" as="geometry" />
        </mxCell>
        <mxCell id="yZXfQdU-AH0fw_9IXDf0-1" style="edgeStyle=orthogonalEdgeStyle;rounded=0;orthogonalLoop=1;jettySize=auto;html=1;exitX=1;exitY=0.25;exitDx=0;exitDy=0;entryX=0.25;entryY=0;entryDx=0;entryDy=0;" parent="1" source="87EaGYxLtG6GQQDCgHVv-20" target="87EaGYxLtG6GQQDCgHVv-14" edge="1">
          <mxGeometry relative="1" as="geometry" />
        </mxCell>
        <mxCell id="yZXfQdU-AH0fw_9IXDf0-2" value="5,6,7" style="edgeLabel;html=1;align=center;verticalAlign=middle;resizable=0;points=[];" parent="yZXfQdU-AH0fw_9IXDf0-1" vertex="1" connectable="0">
          <mxGeometry x="0.1047" y="-3" relative="1" as="geometry">
            <mxPoint x="-5" y="-3" as="offset" />
          </mxGeometry>
        </mxCell>
        <mxCell id="yZXfQdU-AH0fw_9IXDf0-7" style="edgeStyle=orthogonalEdgeStyle;rounded=0;orthogonalLoop=1;jettySize=auto;html=1;exitX=1;exitY=0.5;exitDx=0;exitDy=0;entryX=0.25;entryY=0;entryDx=0;entryDy=0;" parent="1" source="87EaGYxLtG6GQQDCgHVv-20" target="87EaGYxLtG6GQQDCgHVv-15" edge="1">
          <mxGeometry relative="1" as="geometry">
            <Array as="points">
              <mxPoint x="350" y="220" />
              <mxPoint x="350" y="270" />
              <mxPoint x="400" y="270" />
            </Array>
          </mxGeometry>
        </mxCell>
        <mxCell id="yZXfQdU-AH0fw_9IXDf0-8" value="8, 11" style="edgeLabel;html=1;align=center;verticalAlign=middle;resizable=0;points=[];" parent="yZXfQdU-AH0fw_9IXDf0-7" vertex="1" connectable="0">
          <mxGeometry x="-0.4015" relative="1" as="geometry">
            <mxPoint as="offset" />
          </mxGeometry>
        </mxCell>
        <mxCell id="87EaGYxLtG6GQQDCgHVv-20" value="Trưởng bộ môn" style="rounded=0;whiteSpace=wrap;html=1;" parent="1" vertex="1">
          <mxGeometry x="90" y="190" width="120" height="60" as="geometry" />
        </mxCell>
        <mxCell id="yZXfQdU-AH0fw_9IXDf0-17" style="edgeStyle=orthogonalEdgeStyle;rounded=0;orthogonalLoop=1;jettySize=auto;html=1;exitX=0;exitY=0.25;exitDx=0;exitDy=0;entryX=0.25;entryY=0;entryDx=0;entryDy=0;" parent="1" source="87EaGYxLtG6GQQDCgHVv-21" target="87EaGYxLtG6GQQDCgHVv-1" edge="1">
          <mxGeometry relative="1" as="geometry" />
        </mxCell>
        <mxCell id="yZXfQdU-AH0fw_9IXDf0-18" value="9" style="edgeLabel;html=1;align=center;verticalAlign=middle;resizable=0;points=[];" parent="yZXfQdU-AH0fw_9IXDf0-17" vertex="1" connectable="0">
          <mxGeometry x="-0.4671" y="-1" relative="1" as="geometry">
            <mxPoint as="offset" />
          </mxGeometry>
        </mxCell>
        <mxCell id="yZXfQdU-AH0fw_9IXDf0-23" style="edgeStyle=orthogonalEdgeStyle;rounded=0;orthogonalLoop=1;jettySize=auto;html=1;exitX=1;exitY=0.25;exitDx=0;exitDy=0;entryX=0;entryY=0.25;entryDx=0;entryDy=0;" parent="1" source="87EaGYxLtG6GQQDCgHVv-21" target="87EaGYxLtG6GQQDCgHVv-15" edge="1">
          <mxGeometry relative="1" as="geometry" />
        </mxCell>
        <mxCell id="yZXfQdU-AH0fw_9IXDf0-25" value="10" style="edgeLabel;html=1;align=center;verticalAlign=middle;resizable=0;points=[];" parent="yZXfQdU-AH0fw_9IXDf0-23" vertex="1" connectable="0">
          <mxGeometry x="-0.1788" y="-4" relative="1" as="geometry">
            <mxPoint y="-4" as="offset" />
          </mxGeometry>
        </mxCell>
        <mxCell id="87EaGYxLtG6GQQDCgHVv-21" value="Sinh viên" style="rounded=0;whiteSpace=wrap;html=1;" parent="1" vertex="1">
          <mxGeometry x="90" y="290" width="120" height="60" as="geometry" />
        </mxCell>
        <mxCell id="yZXfQdU-AH0fw_9IXDf0-39" style="edgeStyle=orthogonalEdgeStyle;rounded=0;orthogonalLoop=1;jettySize=auto;html=1;exitX=1;exitY=0.25;exitDx=0;exitDy=0;entryX=0.25;entryY=1;entryDx=0;entryDy=0;" parent="1" source="87EaGYxLtG6GQQDCgHVv-22" target="87EaGYxLtG6GQQDCgHVv-1" edge="1">
          <mxGeometry relative="1" as="geometry">
            <Array as="points">
              <mxPoint x="340" y="415" />
              <mxPoint x="340" y="170" />
              <mxPoint x="400" y="170" />
            </Array>
          </mxGeometry>
        </mxCell>
        <mxCell id="yZXfQdU-AH0fw_9IXDf0-40" value="1" style="edgeLabel;html=1;align=center;verticalAlign=middle;resizable=0;points=[];" parent="yZXfQdU-AH0fw_9IXDf0-39" vertex="1" connectable="0">
          <mxGeometry x="-0.6492" y="3" relative="1" as="geometry">
            <mxPoint as="offset" />
          </mxGeometry>
        </mxCell>
        <mxCell id="87EaGYxLtG6GQQDCgHVv-22" value="Giáo sư" style="rounded=0;whiteSpace=wrap;html=1;" parent="1" vertex="1">
          <mxGeometry x="90" y="400" width="120" height="60" as="geometry" />
        </mxCell>
        <mxCell id="87EaGYxLtG6GQQDCgHVv-34" style="edgeStyle=orthogonalEdgeStyle;rounded=0;orthogonalLoop=1;jettySize=auto;html=1;exitX=0;exitY=0.5;exitDx=0;exitDy=0;entryX=1;entryY=0.5;entryDx=0;entryDy=0;" parent="1" source="87EaGYxLtG6GQQDCgHVv-24" target="87EaGYxLtG6GQQDCgHVv-1" edge="1">
          <mxGeometry relative="1" as="geometry" />
        </mxCell>
        <mxCell id="87EaGYxLtG6GQQDCgHVv-35" value="4" style="edgeLabel;html=1;align=center;verticalAlign=middle;resizable=0;points=[];" parent="87EaGYxLtG6GQQDCgHVv-34" vertex="1" connectable="0">
          <mxGeometry x="0.2578" y="2" relative="1" as="geometry">
            <mxPoint as="offset" />
          </mxGeometry>
        </mxCell>
        <mxCell id="87EaGYxLtG6GQQDCgHVv-24" value="Tài khoản" style="html=1;dashed=0;whiteSpace=wrap;shape=partialRectangle;right=0;left=0;" parent="1" vertex="1">
          <mxGeometry x="670" y="105" width="100" height="30" as="geometry" />
        </mxCell>
        <mxCell id="87EaGYxLtG6GQQDCgHVv-37" style="edgeStyle=orthogonalEdgeStyle;rounded=0;orthogonalLoop=1;jettySize=auto;html=1;exitX=0;exitY=0;exitDx=0;exitDy=0;entryX=1;entryY=1;entryDx=0;entryDy=0;" parent="1" source="87EaGYxLtG6GQQDCgHVv-25" target="87EaGYxLtG6GQQDCgHVv-1" edge="1">
          <mxGeometry relative="1" as="geometry">
            <Array as="points">
              <mxPoint x="670" y="170" />
              <mxPoint x="490" y="170" />
            </Array>
          </mxGeometry>
        </mxCell>
        <mxCell id="87EaGYxLtG6GQQDCgHVv-39" value="3" style="edgeLabel;html=1;align=center;verticalAlign=middle;resizable=0;points=[];" parent="87EaGYxLtG6GQQDCgHVv-37" vertex="1" connectable="0">
          <mxGeometry x="-0.1902" y="-3" relative="1" as="geometry">
            <mxPoint y="3" as="offset" />
          </mxGeometry>
        </mxCell>
        <mxCell id="87EaGYxLtG6GQQDCgHVv-25" value="Quyền" style="html=1;dashed=0;whiteSpace=wrap;shape=partialRectangle;right=0;left=0;" parent="1" vertex="1">
          <mxGeometry x="670" y="215" width="100" height="30" as="geometry" />
        </mxCell>
        <mxCell id="87EaGYxLtG6GQQDCgHVv-28" value="Chú thích:&lt;div&gt;1. Thông tin quản lý tài khoản&lt;/div&gt;&lt;div&gt;2. Thông tin quản lý quyền&lt;/div&gt;&lt;div&gt;3. Thông tin phân quyền người dùng&lt;/div&gt;&lt;div&gt;4. Thông tin tài khoản&lt;/div&gt;&lt;div&gt;5. Thông tin danh mục đề tài&lt;/div&gt;&lt;div&gt;6. Thông tin danh mục đăng ký đồ án&lt;/div&gt;&lt;div&gt;7. Thông tin danh mục nhóm&lt;/div&gt;&lt;div&gt;8. Thông tin phân công giảng viên&lt;/div&gt;&lt;div&gt;9. Thông tin sinh viên&lt;/div&gt;&lt;div&gt;10. Thông tin đăng ký đồ án&lt;/div&gt;&lt;div&gt;11. Thông tin điểm đồ án&lt;/div&gt;&lt;div&gt;12. Thông tin các báo cáo thống kê&lt;/div&gt;" style="text;html=1;align=left;verticalAlign=middle;whiteSpace=wrap;rounded=0;" parent="1" vertex="1">
          <mxGeometry x="100" y="480" width="240" height="200" as="geometry" />
        </mxCell>
        <mxCell id="yZXfQdU-AH0fw_9IXDf0-5" style="edgeStyle=orthogonalEdgeStyle;rounded=0;orthogonalLoop=1;jettySize=auto;html=1;exitX=0;exitY=0;exitDx=0;exitDy=0;entryX=1;entryY=0.25;entryDx=0;entryDy=0;" parent="1" source="87EaGYxLtG6GQQDCgHVv-42" target="87EaGYxLtG6GQQDCgHVv-15" edge="1">
          <mxGeometry relative="1" as="geometry" />
        </mxCell>
        <mxCell id="yZXfQdU-AH0fw_9IXDf0-6" value="5,6,7" style="edgeLabel;html=1;align=center;verticalAlign=middle;resizable=0;points=[];" parent="yZXfQdU-AH0fw_9IXDf0-5" vertex="1" connectable="0">
          <mxGeometry x="-0.2963" y="1" relative="1" as="geometry">
            <mxPoint as="offset" />
          </mxGeometry>
        </mxCell>
        <mxCell id="87EaGYxLtG6GQQDCgHVv-42" value="Danh mục" style="html=1;dashed=0;whiteSpace=wrap;shape=partialRectangle;right=0;left=0;" parent="1" vertex="1">
          <mxGeometry x="670" y="290" width="100" height="30" as="geometry" />
        </mxCell>
        <mxCell id="yZXfQdU-AH0fw_9IXDf0-21" style="edgeStyle=orthogonalEdgeStyle;rounded=0;orthogonalLoop=1;jettySize=auto;html=1;exitX=0.5;exitY=0;exitDx=0;exitDy=0;entryX=0.75;entryY=0;entryDx=0;entryDy=0;" parent="1" source="yZXfQdU-AH0fw_9IXDf0-10" target="87EaGYxLtG6GQQDCgHVv-1" edge="1">
          <mxGeometry relative="1" as="geometry">
            <Array as="points">
              <mxPoint x="790" y="360" />
              <mxPoint x="790" y="70" />
              <mxPoint x="460" y="70" />
            </Array>
          </mxGeometry>
        </mxCell>
        <mxCell id="yZXfQdU-AH0fw_9IXDf0-22" value="9" style="edgeLabel;html=1;align=center;verticalAlign=middle;resizable=0;points=[];" parent="yZXfQdU-AH0fw_9IXDf0-21" vertex="1" connectable="0">
          <mxGeometry x="0.6034" y="-2" relative="1" as="geometry">
            <mxPoint as="offset" />
          </mxGeometry>
        </mxCell>
        <mxCell id="yZXfQdU-AH0fw_9IXDf0-45" style="edgeStyle=orthogonalEdgeStyle;rounded=0;orthogonalLoop=1;jettySize=auto;html=1;exitX=0;exitY=0.25;exitDx=0;exitDy=0;entryX=1;entryY=0.25;entryDx=0;entryDy=0;" parent="1" source="yZXfQdU-AH0fw_9IXDf0-10" target="87EaGYxLtG6GQQDCgHVv-16" edge="1">
          <mxGeometry relative="1" as="geometry">
            <Array as="points">
              <mxPoint x="580" y="367" />
              <mxPoint x="580" y="425" />
            </Array>
          </mxGeometry>
        </mxCell>
        <mxCell id="yZXfQdU-AH0fw_9IXDf0-46" value="9" style="edgeLabel;html=1;align=center;verticalAlign=middle;resizable=0;points=[];" parent="yZXfQdU-AH0fw_9IXDf0-45" vertex="1" connectable="0">
          <mxGeometry x="0.6356" y="-1" relative="1" as="geometry">
            <mxPoint as="offset" />
          </mxGeometry>
        </mxCell>
        <mxCell id="yZXfQdU-AH0fw_9IXDf0-10" value="Sinh viên" style="html=1;dashed=0;whiteSpace=wrap;shape=partialRectangle;right=0;left=0;" parent="1" vertex="1">
          <mxGeometry x="670" y="360" width="100" height="30" as="geometry" />
        </mxCell>
        <mxCell id="yZXfQdU-AH0fw_9IXDf0-14" style="edgeStyle=orthogonalEdgeStyle;rounded=0;orthogonalLoop=1;jettySize=auto;html=1;exitX=0;exitY=0;exitDx=0;exitDy=0;entryX=1;entryY=0.75;entryDx=0;entryDy=0;" parent="1" source="yZXfQdU-AH0fw_9IXDf0-11" target="87EaGYxLtG6GQQDCgHVv-15" edge="1">
          <mxGeometry relative="1" as="geometry">
            <Array as="points">
              <mxPoint x="630" y="430" />
              <mxPoint x="630" y="345" />
            </Array>
          </mxGeometry>
        </mxCell>
        <mxCell id="yZXfQdU-AH0fw_9IXDf0-16" value="8" style="edgeLabel;html=1;align=center;verticalAlign=middle;resizable=0;points=[];" parent="yZXfQdU-AH0fw_9IXDf0-14" vertex="1" connectable="0">
          <mxGeometry x="-0.3298" y="-2" relative="1" as="geometry">
            <mxPoint x="-2" y="-21" as="offset" />
          </mxGeometry>
        </mxCell>
        <mxCell id="5NaF9u9C-5IX2Yy5yvwq-3" style="edgeStyle=orthogonalEdgeStyle;rounded=0;orthogonalLoop=1;jettySize=auto;html=1;exitX=1;exitY=0.25;exitDx=0;exitDy=0;entryX=0.75;entryY=1;entryDx=0;entryDy=0;" edge="1" parent="1" source="yZXfQdU-AH0fw_9IXDf0-11" target="87EaGYxLtG6GQQDCgHVv-16">
          <mxGeometry relative="1" as="geometry">
            <Array as="points">
              <mxPoint x="790" y="438" />
              <mxPoint x="790" y="550" />
              <mxPoint x="460" y="550" />
            </Array>
          </mxGeometry>
        </mxCell>
        <mxCell id="5NaF9u9C-5IX2Yy5yvwq-4" value="10" style="edgeLabel;html=1;align=center;verticalAlign=middle;resizable=0;points=[];" vertex="1" connectable="0" parent="5NaF9u9C-5IX2Yy5yvwq-3">
          <mxGeometry x="0.1049" y="2" relative="1" as="geometry">
            <mxPoint as="offset" />
          </mxGeometry>
        </mxCell>
        <mxCell id="yZXfQdU-AH0fw_9IXDf0-11" value="Đồ án" style="html=1;dashed=0;whiteSpace=wrap;shape=partialRectangle;right=0;left=0;" parent="1" vertex="1">
          <mxGeometry x="670" y="430" width="100" height="30" as="geometry" />
        </mxCell>
        <mxCell id="yZXfQdU-AH0fw_9IXDf0-30" style="edgeStyle=orthogonalEdgeStyle;rounded=0;orthogonalLoop=1;jettySize=auto;html=1;exitX=0;exitY=0.75;exitDx=0;exitDy=0;entryX=0.75;entryY=1;entryDx=0;entryDy=0;" parent="1" source="yZXfQdU-AH0fw_9IXDf0-24" target="87EaGYxLtG6GQQDCgHVv-15" edge="1">
          <mxGeometry relative="1" as="geometry">
            <Array as="points">
              <mxPoint x="560" y="523" />
              <mxPoint x="560" y="380" />
              <mxPoint x="460" y="380" />
            </Array>
          </mxGeometry>
        </mxCell>
        <mxCell id="yZXfQdU-AH0fw_9IXDf0-31" value="11" style="edgeLabel;html=1;align=center;verticalAlign=middle;resizable=0;points=[];" parent="yZXfQdU-AH0fw_9IXDf0-30" vertex="1" connectable="0">
          <mxGeometry x="0.1689" y="1" relative="1" as="geometry">
            <mxPoint as="offset" />
          </mxGeometry>
        </mxCell>
        <mxCell id="yZXfQdU-AH0fw_9IXDf0-43" style="edgeStyle=orthogonalEdgeStyle;rounded=0;orthogonalLoop=1;jettySize=auto;html=1;exitX=0.25;exitY=0;exitDx=0;exitDy=0;entryX=1;entryY=0.75;entryDx=0;entryDy=0;" parent="1" source="yZXfQdU-AH0fw_9IXDf0-24" target="87EaGYxLtG6GQQDCgHVv-16" edge="1">
          <mxGeometry relative="1" as="geometry">
            <Array as="points">
              <mxPoint x="695" y="470" />
              <mxPoint x="520" y="470" />
              <mxPoint x="520" y="455" />
            </Array>
          </mxGeometry>
        </mxCell>
        <mxCell id="yZXfQdU-AH0fw_9IXDf0-44" value="11" style="edgeLabel;html=1;align=center;verticalAlign=middle;resizable=0;points=[];" parent="yZXfQdU-AH0fw_9IXDf0-43" vertex="1" connectable="0">
          <mxGeometry x="-0.1749" y="4" relative="1" as="geometry">
            <mxPoint as="offset" />
          </mxGeometry>
        </mxCell>
        <mxCell id="yZXfQdU-AH0fw_9IXDf0-24" value="Bảng điểm" style="html=1;dashed=0;whiteSpace=wrap;shape=partialRectangle;right=0;left=0;" parent="1" vertex="1">
          <mxGeometry x="670" y="500" width="100" height="30" as="geometry" />
        </mxCell>
      </root>
    </mxGraphModel>
  </diagram>
</mxfile>
